/* XPM */
static char * bottom_left_active_xpm[] = {
"3 3 3 1",
" 	c None",
".	c #282D44",
"+	c #3D4450",
".++",
".++",
" .."};
