/* XPM */
static char * bottom_right_inactive_xpm[] = {
"3 3 3 1",
" 	c None",
".	c #3D4450",
"+	c #282D44",
"..+",
"..+",
"++ "};
