/* XPM */
static char * top_right_active_xpm[] = {
"2 28 3 1",
" 	c None",
".	c #282D44",
"+	c #3D4450",
". ",
"+.",
"+.",
"+.",
"+.",
"+.",
"+.",
"+.",
"+.",
"+.",
"+.",
"+.",
"+.",
"+.",
"+.",
"+.",
"+.",
"+.",
"+.",
"+.",
"+.",
"+.",
"+.",
"+.",
"+.",
"+.",
"+.",
"+."};
